<?xml version="1.0" encoding="utf-8" standalone="no"?>
<!DOCTYPE svg PUBLIC "-//W3C//DTD SVG 1.1//EN"
  "http://www.w3.org/Graphics/SVG/1.1/DTD/svg11.dtd">
<!-- Created with matplotlib (https://matplotlib.org/) -->
<svg height="345.6pt" version="1.1" viewBox="0 0 460.8 345.6" width="460.8pt" xmlns="http://www.w3.org/2000/svg" xmlns:xlink="http://www.w3.org/1999/xlink">
 <metadata>
  <rdf:RDF xmlns:cc="http://creativecommons.org/ns#" xmlns:dc="http://purl.org/dc/elements/1.1/" xmlns:rdf="http://www.w3.org/1999/02/22-rdf-syntax-ns#">
   <cc:Work>
    <dc:type rdf:resource="http://purl.org/dc/dcmitype/StillImage"/>
    <dc:date>2021-05-31T15:23:00.742080</dc:date>
    <dc:format>image/svg+xml</dc:format>
    <dc:creator>
     <cc:Agent>
      <dc:title>Matplotlib v3.3.2, https://matplotlib.org/</dc:title>
     </cc:Agent>
    </dc:creator>
   </cc:Work>
  </rdf:RDF>
 </metadata>
 <defs>
  <style type="text/css">*{stroke-linecap:butt;stroke-linejoin:round;}</style>
 </defs>
 <g id="figure_1">
  <g id="patch_1">
   <path d="M 0 345.6 
L 460.8 345.6 
L 460.8 0 
L 0 0 
z
" style="fill:#ffffff;"/>
  </g>
  <g id="patch_2">
   <path d="M 103.104 307.584 
L 369.216 307.584 
L 369.216 41.472 
L 103.104 41.472 
z
" style="fill:#ffffff;"/>
  </g>
  <g id="pane3d_1">
   <g id="patch_3">
    <path d="M 226.98276 192.12649 
L 357.302952 226.223025 
L 360.616348 105.263656 
L 226.64642 78.235818 
" style="fill:#f2f2f2;opacity:0.5;stroke:#f2f2f2;stroke-linejoin:miter;"/>
   </g>
  </g>
  <g id="pane3d_2">
   <g id="patch_4">
    <path d="M 226.98276 192.12649 
L 120.052592 235.971633 
L 116.614719 113.009224 
L 226.64642 78.235818 
" style="fill:#e6e6e6;opacity:0.5;stroke:#e6e6e6;stroke-linejoin:miter;"/>
   </g>
  </g>
  <g id="pane3d_3">
   <g id="patch_5">
    <path d="M 226.98276 192.12649 
L 120.052592 235.971633 
L 254.699248 276.591949 
L 357.302952 226.223025 
" style="fill:#ececec;opacity:0.5;stroke:#ececec;stroke-linejoin:miter;"/>
   </g>
  </g>
  <g id="axis3d_1">
   <g id="line2d_1">
    <path d="M 357.302952 226.223025 
L 254.699248 276.591949 
" style="fill:none;stroke:#000000;stroke-linecap:square;stroke-width:0.8;"/>
   </g>
   <g id="text_1">
    <!-- z -->
    <g transform="translate(331.163526 282.491883)scale(0.1 -0.1)">
     <defs>
      <path d="M 5.515625 54.6875 
L 48.1875 54.6875 
L 48.1875 46.484375 
L 14.40625 7.171875 
L 48.1875 7.171875 
L 48.1875 0 
L 4.296875 0 
L 4.296875 8.203125 
L 38.09375 47.515625 
L 5.515625 47.515625 
z
" id="DejaVuSans-122"/>
     </defs>
     <use xlink:href="#DejaVuSans-122"/>
    </g>
   </g>
   <g id="Line3DCollection_1">
    <path d="M 351.305945 229.167 
L 220.697094 194.703835 
L 220.192574 80.275432 
" style="fill:none;stroke:#b0b0b0;stroke-width:0.8;"/>
    <path d="M 334.510628 237.411947 
L 203.117111 201.912248 
L 202.132858 85.982858 
" style="fill:none;stroke:#b0b0b0;stroke-width:0.8;"/>
    <path d="M 317.18882 245.915352 
L 185.022626 209.331626 
L 183.53019 91.861874 
" style="fill:none;stroke:#b0b0b0;stroke-width:0.8;"/>
    <path d="M 299.31537 254.689562 
L 166.390719 216.971365 
L 164.359711 97.920336 
" style="fill:none;stroke:#b0b0b0;stroke-width:0.8;"/>
    <path d="M 280.8635 263.747722 
L 147.197086 224.841432 
L 144.595019 104.166587 
" style="fill:none;stroke:#b0b0b0;stroke-width:0.8;"/>
    <path d="M 261.80467 273.103844 
L 127.415935 232.952403 
L 124.208054 110.609496 
" style="fill:none;stroke:#b0b0b0;stroke-width:0.8;"/>
   </g>
   <g id="xtick_1">
    <g id="line2d_2">
     <path d="M 350.189644 228.872447 
L 353.542245 229.757082 
" style="fill:none;stroke:#000000;stroke-linecap:square;stroke-width:0.8;"/>
    </g>
    <g id="text_2">
     <!-- 0.0 -->
     <g transform="translate(354.722448 249.674946)scale(0.1 -0.1)">
      <defs>
       <path d="M 31.78125 66.40625 
Q 24.171875 66.40625 20.328125 58.90625 
Q 16.5 51.421875 16.5 36.375 
Q 16.5 21.390625 20.328125 13.890625 
Q 24.171875 6.390625 31.78125 6.390625 
Q 39.453125 6.390625 43.28125 13.890625 
Q 47.125 21.390625 47.125 36.375 
Q 47.125 51.421875 43.28125 58.90625 
Q 39.453125 66.40625 31.78125 66.40625 
z
M 31.78125 74.21875 
Q 44.046875 74.21875 50.515625 64.515625 
Q 56.984375 54.828125 56.984375 36.375 
Q 56.984375 17.96875 50.515625 8.265625 
Q 44.046875 -1.421875 31.78125 -1.421875 
Q 19.53125 -1.421875 13.0625 8.265625 
Q 6.59375 17.96875 6.59375 36.375 
Q 6.59375 54.828125 13.0625 64.515625 
Q 19.53125 74.21875 31.78125 74.21875 
z
" id="DejaVuSans-48"/>
       <path d="M 10.6875 12.40625 
L 21 12.40625 
L 21 0 
L 10.6875 0 
z
" id="DejaVuSans-46"/>
      </defs>
      <use xlink:href="#DejaVuSans-48"/>
      <use x="63.623047" xlink:href="#DejaVuSans-46"/>
      <use x="95.410156" xlink:href="#DejaVuSans-48"/>
     </g>
    </g>
   </g>
   <g id="xtick_2">
    <g id="line2d_3">
     <path d="M 333.386513 237.108235 
L 336.762641 238.020392 
" style="fill:none;stroke:#000000;stroke-linecap:square;stroke-width:0.8;"/>
    </g>
    <g id="text_3">
     <!-- 0.2 -->
     <g transform="translate(338.044409 258.148656)scale(0.1 -0.1)">
      <defs>
       <path d="M 19.1875 8.296875 
L 53.609375 8.296875 
L 53.609375 0 
L 7.328125 0 
L 7.328125 8.296875 
Q 12.9375 14.109375 22.625 23.890625 
Q 32.328125 33.6875 34.8125 36.53125 
Q 39.546875 41.84375 41.421875 45.53125 
Q 43.3125 49.21875 43.3125 52.78125 
Q 43.3125 58.59375 39.234375 62.25 
Q 35.15625 65.921875 28.609375 65.921875 
Q 23.96875 65.921875 18.8125 64.3125 
Q 13.671875 62.703125 7.8125 59.421875 
L 7.8125 69.390625 
Q 13.765625 71.78125 18.9375 73 
Q 24.125 74.21875 28.421875 74.21875 
Q 39.75 74.21875 46.484375 68.546875 
Q 53.21875 62.890625 53.21875 53.421875 
Q 53.21875 48.921875 51.53125 44.890625 
Q 49.859375 40.875 45.40625 35.40625 
Q 44.1875 33.984375 37.640625 27.21875 
Q 31.109375 20.453125 19.1875 8.296875 
z
" id="DejaVuSans-50"/>
      </defs>
      <use xlink:href="#DejaVuSans-48"/>
      <use x="63.623047" xlink:href="#DejaVuSans-46"/>
      <use x="95.410156" xlink:href="#DejaVuSans-50"/>
     </g>
    </g>
   </g>
   <g id="xtick_3">
    <g id="line2d_4">
     <path d="M 316.056944 245.602048 
L 319.456439 246.543031 
" style="fill:none;stroke:#000000;stroke-linecap:square;stroke-width:0.8;"/>
    </g>
    <g id="text_4">
     <!-- 0.4 -->
     <g transform="translate(320.841697 266.88894)scale(0.1 -0.1)">
      <defs>
       <path d="M 37.796875 64.3125 
L 12.890625 25.390625 
L 37.796875 25.390625 
z
M 35.203125 72.90625 
L 47.609375 72.90625 
L 47.609375 25.390625 
L 58.015625 25.390625 
L 58.015625 17.1875 
L 47.609375 17.1875 
L 47.609375 0 
L 37.796875 0 
L 37.796875 17.1875 
L 4.890625 17.1875 
L 4.890625 26.703125 
z
" id="DejaVuSans-52"/>
      </defs>
      <use xlink:href="#DejaVuSans-48"/>
      <use x="63.623047" xlink:href="#DejaVuSans-46"/>
      <use x="95.410156" xlink:href="#DejaVuSans-52"/>
     </g>
    </g>
   </g>
   <g id="xtick_4">
    <g id="line2d_5">
     <path d="M 298.175805 254.366203 
L 301.598454 255.337401 
" style="fill:none;stroke:#000000;stroke-linecap:square;stroke-width:0.8;"/>
    </g>
    <g id="text_5">
     <!-- 0.6 -->
     <g transform="translate(303.089158 275.908578)scale(0.1 -0.1)">
      <defs>
       <path d="M 33.015625 40.375 
Q 26.375 40.375 22.484375 35.828125 
Q 18.609375 31.296875 18.609375 23.390625 
Q 18.609375 15.53125 22.484375 10.953125 
Q 26.375 6.390625 33.015625 6.390625 
Q 39.65625 6.390625 43.53125 10.953125 
Q 47.40625 15.53125 47.40625 23.390625 
Q 47.40625 31.296875 43.53125 35.828125 
Q 39.65625 40.375 33.015625 40.375 
z
M 52.59375 71.296875 
L 52.59375 62.3125 
Q 48.875 64.0625 45.09375 64.984375 
Q 41.3125 65.921875 37.59375 65.921875 
Q 27.828125 65.921875 22.671875 59.328125 
Q 17.53125 52.734375 16.796875 39.40625 
Q 19.671875 43.65625 24.015625 45.921875 
Q 28.375 48.1875 33.59375 48.1875 
Q 44.578125 48.1875 50.953125 41.515625 
Q 57.328125 34.859375 57.328125 23.390625 
Q 57.328125 12.15625 50.6875 5.359375 
Q 44.046875 -1.421875 33.015625 -1.421875 
Q 20.359375 -1.421875 13.671875 8.265625 
Q 6.984375 17.96875 6.984375 36.375 
Q 6.984375 53.65625 15.1875 63.9375 
Q 23.390625 74.21875 37.203125 74.21875 
Q 40.921875 74.21875 44.703125 73.484375 
Q 48.484375 72.75 52.59375 71.296875 
z
" id="DejaVuSans-54"/>
      </defs>
      <use xlink:href="#DejaVuSans-48"/>
      <use x="63.623047" xlink:href="#DejaVuSans-46"/>
      <use x="95.410156" xlink:href="#DejaVuSans-54"/>
     </g>
    </g>
   </g>
   <g id="xtick_5">
    <g id="line2d_6">
     <path d="M 279.716338 263.413818 
L 283.16187 264.416709 
" style="fill:none;stroke:#000000;stroke-linecap:square;stroke-width:0.8;"/>
    </g>
    <g id="text_6">
     <!-- 0.8 -->
     <g transform="translate(284.760004 285.22118)scale(0.1 -0.1)">
      <defs>
       <path d="M 31.78125 34.625 
Q 24.75 34.625 20.71875 30.859375 
Q 16.703125 27.09375 16.703125 20.515625 
Q 16.703125 13.921875 20.71875 10.15625 
Q 24.75 6.390625 31.78125 6.390625 
Q 38.8125 6.390625 42.859375 10.171875 
Q 46.921875 13.96875 46.921875 20.515625 
Q 46.921875 27.09375 42.890625 30.859375 
Q 38.875 34.625 31.78125 34.625 
z
M 21.921875 38.8125 
Q 15.578125 40.375 12.03125 44.71875 
Q 8.5 49.078125 8.5 55.328125 
Q 8.5 64.0625 14.71875 69.140625 
Q 20.953125 74.21875 31.78125 74.21875 
Q 42.671875 74.21875 48.875 69.140625 
Q 55.078125 64.0625 55.078125 55.328125 
Q 55.078125 49.078125 51.53125 44.71875 
Q 48 40.375 41.703125 38.8125 
Q 48.828125 37.15625 52.796875 32.3125 
Q 56.78125 27.484375 56.78125 20.515625 
Q 56.78125 9.90625 50.3125 4.234375 
Q 43.84375 -1.421875 31.78125 -1.421875 
Q 19.734375 -1.421875 13.25 4.234375 
Q 6.78125 9.90625 6.78125 20.515625 
Q 6.78125 27.484375 10.78125 32.3125 
Q 14.796875 37.15625 21.921875 38.8125 
z
M 18.3125 54.390625 
Q 18.3125 48.734375 21.84375 45.5625 
Q 25.390625 42.390625 31.78125 42.390625 
Q 38.140625 42.390625 41.71875 45.5625 
Q 45.3125 48.734375 45.3125 54.390625 
Q 45.3125 60.0625 41.71875 63.234375 
Q 38.140625 66.40625 31.78125 66.40625 
Q 25.390625 66.40625 21.84375 63.234375 
Q 18.3125 60.0625 18.3125 54.390625 
z
" id="DejaVuSans-56"/>
      </defs>
      <use xlink:href="#DejaVuSans-48"/>
      <use x="63.623047" xlink:href="#DejaVuSans-46"/>
      <use x="95.410156" xlink:href="#DejaVuSans-56"/>
     </g>
    </g>
   </g>
   <g id="xtick_6">
    <g id="line2d_7">
     <path d="M 260.650022 272.758869 
L 264.118105 273.795031 
" style="fill:none;stroke:#000000;stroke-linecap:square;stroke-width:0.8;"/>
    </g>
    <g id="text_7">
     <!-- 1.0 -->
     <g transform="translate(265.825677 294.841256)scale(0.1 -0.1)">
      <defs>
       <path d="M 12.40625 8.296875 
L 28.515625 8.296875 
L 28.515625 63.921875 
L 10.984375 60.40625 
L 10.984375 69.390625 
L 28.421875 72.90625 
L 38.28125 72.90625 
L 38.28125 8.296875 
L 54.390625 8.296875 
L 54.390625 0 
L 12.40625 0 
z
" id="DejaVuSans-49"/>
      </defs>
      <use xlink:href="#DejaVuSans-49"/>
      <use x="63.623047" xlink:href="#DejaVuSans-46"/>
      <use x="95.410156" xlink:href="#DejaVuSans-48"/>
     </g>
    </g>
   </g>
  </g>
  <g id="axis3d_2">
   <g id="line2d_8">
    <path d="M 120.052592 235.971633 
L 254.699248 276.591949 
" style="fill:none;stroke:#000000;stroke-linecap:square;stroke-width:0.8;"/>
   </g>
   <g id="text_8">
    <!-- x -->
    <g transform="translate(161.356454 290.14285)scale(0.1 -0.1)">
     <defs>
      <path d="M 54.890625 54.6875 
L 35.109375 28.078125 
L 55.90625 0 
L 45.3125 0 
L 29.390625 21.484375 
L 13.484375 0 
L 2.875 0 
L 24.125 28.609375 
L 4.6875 54.6875 
L 15.28125 54.6875 
L 29.78125 35.203125 
L 44.28125 54.6875 
z
" id="DejaVuSans-120"/>
     </defs>
     <use xlink:href="#DejaVuSans-120"/>
    </g>
   </g>
   <g id="Line3DCollection_2">
    <path d="M 234.643809 79.849255 
L 234.775507 194.165357 
L 128.05826 238.38679 
" style="fill:none;stroke:#b0b0b0;stroke-width:0.8;"/>
    <path d="M 256.92909 84.345212 
L 256.481664 199.844483 
L 150.388056 245.123262 
" style="fill:none;stroke:#b0b0b0;stroke-width:0.8;"/>
    <path d="M 279.741059 88.947425 
L 278.687303 205.654292 
L 173.278337 252.028821 
" style="fill:none;stroke:#b0b0b0;stroke-width:0.8;"/>
    <path d="M 303.098612 93.659708 
L 301.409865 211.599346 
L 196.750474 259.109915 
" style="fill:none;stroke:#b0b0b0;stroke-width:0.8;"/>
    <path d="M 327.021558 98.486056 
L 324.667613 217.684425 
L 220.826939 266.373322 
" style="fill:none;stroke:#b0b0b0;stroke-width:0.8;"/>
    <path d="M 351.530677 103.430662 
L 348.479679 223.914533 
L 245.531374 273.826177 
" style="fill:none;stroke:#b0b0b0;stroke-width:0.8;"/>
   </g>
   <g id="xtick_7">
    <g id="line2d_9">
     <path d="M 128.986956 238.001957 
L 126.196914 239.158094 
" style="fill:none;stroke:#000000;stroke-linecap:square;stroke-width:0.8;"/>
    </g>
    <g id="text_9">
     <!-- 0.0 -->
     <g transform="translate(110.680389 260.006112)scale(0.1 -0.1)">
      <use xlink:href="#DejaVuSans-48"/>
      <use x="63.623047" xlink:href="#DejaVuSans-46"/>
      <use x="95.410156" xlink:href="#DejaVuSans-48"/>
     </g>
    </g>
   </g>
   <g id="xtick_8">
    <g id="line2d_10">
     <path d="M 151.312248 244.728834 
L 148.535688 245.913817 
" style="fill:none;stroke:#000000;stroke-linecap:square;stroke-width:0.8;"/>
    </g>
    <g id="text_10">
     <!-- 0.2 -->
     <g transform="translate(133.006866 266.951681)scale(0.1 -0.1)">
      <use xlink:href="#DejaVuSans-48"/>
      <use x="63.623047" xlink:href="#DejaVuSans-46"/>
      <use x="95.410156" xlink:href="#DejaVuSans-50"/>
     </g>
    </g>
   </g>
   <g id="xtick_9">
    <g id="line2d_11">
     <path d="M 174.197505 251.624434 
L 171.435989 252.839359 
" style="fill:none;stroke:#000000;stroke-linecap:square;stroke-width:0.8;"/>
    </g>
    <g id="text_11">
     <!-- 0.4 -->
     <g transform="translate(155.896646 274.072488)scale(0.1 -0.1)">
      <use xlink:href="#DejaVuSans-48"/>
      <use x="63.623047" xlink:href="#DejaVuSans-46"/>
      <use x="95.410156" xlink:href="#DejaVuSans-52"/>
     </g>
    </g>
   </g>
   <g id="xtick_10">
    <g id="line2d_12">
     <path d="M 197.664063 258.695187 
L 194.919259 259.941202 
" style="fill:none;stroke:#000000;stroke-linecap:square;stroke-width:0.8;"/>
    </g>
    <g id="text_12">
     <!-- 0.6 -->
     <g transform="translate(179.371318 281.375251)scale(0.1 -0.1)">
      <use xlink:href="#DejaVuSans-48"/>
      <use x="63.623047" xlink:href="#DejaVuSans-46"/>
      <use x="95.410156" xlink:href="#DejaVuSans-54"/>
     </g>
    </g>
   </g>
   <g id="xtick_11">
    <g id="line2d_13">
     <path d="M 221.734355 265.947852 
L 219.008044 267.226167 
" style="fill:none;stroke:#000000;stroke-linecap:square;stroke-width:0.8;"/>
    </g>
    <g id="text_13">
     <!-- 0.8 -->
     <g transform="translate(203.453591 288.867032)scale(0.1 -0.1)">
      <use xlink:href="#DejaVuSans-48"/>
      <use x="63.623047" xlink:href="#DejaVuSans-46"/>
      <use x="95.410156" xlink:href="#DejaVuSans-56"/>
     </g>
    </g>
   </g>
   <g id="xtick_12">
    <g id="line2d_14">
     <path d="M 246.431982 273.389542 
L 243.726071 274.701428 
" style="fill:none;stroke:#000000;stroke-linecap:square;stroke-width:0.8;"/>
    </g>
    <g id="text_14">
     <!-- 1.0 -->
     <g transform="translate(228.167365 296.555268)scale(0.1 -0.1)">
      <use xlink:href="#DejaVuSans-49"/>
      <use x="63.623047" xlink:href="#DejaVuSans-46"/>
      <use x="95.410156" xlink:href="#DejaVuSans-48"/>
     </g>
    </g>
   </g>
  </g>
  <g id="axis3d_3">
   <g id="line2d_15">
    <path d="M 120.052592 235.971633 
L 116.614719 113.009224 
" style="fill:none;stroke:#000000;stroke-linecap:square;stroke-width:0.8;"/>
   </g>
   <g id="text_15">
    <!-- y -->
    <g transform="translate(71.047905 179.738196)scale(0.1 -0.1)">
     <defs>
      <path d="M 32.171875 -5.078125 
Q 28.375 -14.84375 24.75 -17.8125 
Q 21.140625 -20.796875 15.09375 -20.796875 
L 7.90625 -20.796875 
L 7.90625 -13.28125 
L 13.1875 -13.28125 
Q 16.890625 -13.28125 18.9375 -11.515625 
Q 21 -9.765625 23.484375 -3.21875 
L 25.09375 0.875 
L 2.984375 54.6875 
L 12.5 54.6875 
L 29.59375 11.921875 
L 46.6875 54.6875 
L 56.203125 54.6875 
z
" id="DejaVuSans-121"/>
     </defs>
     <use xlink:href="#DejaVuSans-121"/>
    </g>
   </g>
   <g id="Line3DCollection_3">
    <path d="M 119.985717 233.579707 
L 226.976202 189.905976 
L 357.367439 223.868869 
" style="fill:none;stroke:#b0b0b0;stroke-width:0.8;"/>
    <path d="M 119.339892 210.4805 
L 226.912905 168.472468 
L 357.990128 201.136854 
" style="fill:none;stroke:#b0b0b0;stroke-width:0.8;"/>
    <path d="M 118.687065 187.130831 
L 226.848978 146.825588 
L 358.619447 178.162849 
" style="fill:none;stroke:#b0b0b0;stroke-width:0.8;"/>
    <path d="M 118.027121 163.526605 
L 226.784411 124.962135 
L 359.2555 154.942971 
" style="fill:none;stroke:#b0b0b0;stroke-width:0.8;"/>
    <path d="M 117.359943 139.663637 
L 226.719195 102.878843 
L 359.898398 131.473251 
" style="fill:none;stroke:#b0b0b0;stroke-width:0.8;"/>
    <path d="M 116.685411 115.537649 
L 226.65332 80.572379 
L 360.54825 107.749634 
" style="fill:none;stroke:#b0b0b0;stroke-width:0.8;"/>
   </g>
   <g id="xtick_13">
    <g id="line2d_16">
     <path d="M 120.916499 233.19976 
L 118.120205 234.341213 
" style="fill:none;stroke:#000000;stroke-linecap:square;stroke-width:0.8;"/>
    </g>
    <g id="text_16">
     <!-- 0.0 -->
     <g transform="translate(91.945807 241.999921)scale(0.1 -0.1)">
      <use xlink:href="#DejaVuSans-48"/>
      <use x="63.623047" xlink:href="#DejaVuSans-46"/>
      <use x="95.410156" xlink:href="#DejaVuSans-48"/>
     </g>
    </g>
   </g>
   <g id="xtick_14">
    <g id="line2d_17">
     <path d="M 120.276147 210.114885 
L 117.46339 211.213287 
" style="fill:none;stroke:#000000;stroke-linecap:square;stroke-width:0.8;"/>
    </g>
    <g id="text_17">
     <!-- 0.2 -->
     <g transform="translate(91.190506 218.869723)scale(0.1 -0.1)">
      <use xlink:href="#DejaVuSans-48"/>
      <use x="63.623047" xlink:href="#DejaVuSans-46"/>
      <use x="95.410156" xlink:href="#DejaVuSans-50"/>
     </g>
    </g>
   </g>
   <g id="xtick_15">
    <g id="line2d_18">
     <path d="M 119.628858 186.779883 
L 116.799442 187.834231 
" style="fill:none;stroke:#000000;stroke-linecap:square;stroke-width:0.8;"/>
    </g>
    <g id="text_18">
     <!-- 0.4 -->
     <g transform="translate(90.427002 195.488342)scale(0.1 -0.1)">
      <use xlink:href="#DejaVuSans-48"/>
      <use x="63.623047" xlink:href="#DejaVuSans-46"/>
      <use x="95.410156" xlink:href="#DejaVuSans-52"/>
     </g>
    </g>
   </g>
   <g id="xtick_16">
    <g id="line2d_19">
     <path d="M 118.974517 163.190666 
L 116.128245 164.199931 
" style="fill:none;stroke:#000000;stroke-linecap:square;stroke-width:0.8;"/>
    </g>
    <g id="text_19">
     <!-- 0.6 -->
     <g transform="translate(89.655162 171.851662)scale(0.1 -0.1)">
      <use xlink:href="#DejaVuSans-48"/>
      <use x="63.623047" xlink:href="#DejaVuSans-46"/>
      <use x="95.410156" xlink:href="#DejaVuSans-54"/>
     </g>
    </g>
   </g>
   <g id="xtick_17">
    <g id="line2d_20">
     <path d="M 118.313008 139.343058 
L 115.449681 140.306185 
" style="fill:none;stroke:#000000;stroke-linecap:square;stroke-width:0.8;"/>
    </g>
    <g id="text_20">
     <!-- 0.8 -->
     <g transform="translate(88.874848 147.95548)scale(0.1 -0.1)">
      <use xlink:href="#DejaVuSans-48"/>
      <use x="63.623047" xlink:href="#DejaVuSans-46"/>
      <use x="95.410156" xlink:href="#DejaVuSans-56"/>
     </g>
    </g>
   </g>
   <g id="xtick_18">
    <g id="line2d_21">
     <path d="M 117.644214 115.232789 
L 114.763626 116.148697 
" style="fill:none;stroke:#000000;stroke-linecap:square;stroke-width:0.8;"/>
    </g>
    <g id="text_21">
     <!-- 1.0 -->
     <g transform="translate(88.08592 123.795499)scale(0.1 -0.1)">
      <use xlink:href="#DejaVuSans-49"/>
      <use x="63.623047" xlink:href="#DejaVuSans-46"/>
      <use x="95.410156" xlink:href="#DejaVuSans-48"/>
     </g>
    </g>
   </g>
  </g>
  <g id="axes_1">
   <g id="Line3DCollection_4">
    <path clip-path="url(#p3a4d3f6e03)" d="M 228.211522 84.26309 
L 212.61721 91.016082 
L 197.154217 101.234603 
L 182.367626 114.680433 
L 168.808707 130.967607 
L 157.005207 149.568531 
L 147.429407 169.832432 
L 140.467379 191.015843 
L 136.393164 212.322857 
L 135.351188 232.951135 
" style="fill:none;stroke:#1f77b4;stroke-width:1.5;"/>
    <path clip-path="url(#p3a4d3f6e03)" d="M 228.211522 84.26309 
L 214.260726 91.332478 
L 200.406347 101.88169 
L 187.13843 115.668259 
L 174.955439 132.298608 
L 164.337073 151.233638 
L 155.714625 171.807355 
L 149.442094 193.258371 
L 145.771652 214.771943 
L 144.83673 235.528283 
" style="fill:none;stroke:#1f77b4;stroke-width:1.5;"/>
    <path clip-path="url(#p3a4d3f6e03)" d="M 228.211522 84.26309 
L 216.003416 91.612264 
L 203.863761 102.454757 
L 192.223188 116.54434 
L 181.521938 133.480599 
L 172.185629 152.714029 
L 164.598487 173.564833 
L 159.076978 195.255348 
L 155.847214 216.953736 
L 155.029206 237.824406 
" style="fill:none;stroke:#1f77b4;stroke-width:1.5;"/>
    <path clip-path="url(#p3a4d3f6e03)" d="M 228.211522 84.26309 
L 217.833074 91.853367 
L 207.501675 102.949238 
L 197.5847 117.301233 
L 188.459331 134.502961 
L 180.491642 153.995782 
L 174.013229 175.087744 
L 169.297996 196.986829 
L 166.542106 218.846129 
L 165.849883 239.816149 
" style="fill:none;stroke:#1f77b4;stroke-width:1.5;"/>
    <path clip-path="url(#p3a4d3f6e03)" d="M 228.211522 84.26309 
L 219.736796 92.053997 
L 211.293663 103.361169 
L 203.182961 117.932437 
L 195.714636 135.356388 
L 189.190439 155.066658 
L 183.884433 176.360989 
L 180.023497 198.435192 
L 177.770366 220.429569 
L 177.211648 241.482853 
" style="fill:none;stroke:#1f77b4;stroke-width:1.5;"/>
    <path clip-path="url(#p3a4d3f6e03)" d="M 228.211522 84.26309 
L 221.701086 92.212657 
L 215.211879 103.687222 
L 208.975528 118.432486 
L 203.23128 136.033025 
L 198.212574 155.916293 
L 194.131822 177.371762 
L 191.165097 199.585462 
L 189.43876 221.687424 
L 189.019968 242.806939 
" style="fill:none;stroke:#1f77b4;stroke-width:1.5;"/>
    <path clip-path="url(#p3a4d3f6e03)" d="M 228.211522 84.26309 
L 223.711957 92.328162 
L 219.227307 103.924754 
L 214.917931 118.797015 
L 210.94969 136.526588 
L 207.484601 156.536378 
L 204.670189 178.109772 
L 202.628744 200.425593 
L 201.44792 222.606307 
L 201.174052 243.774252 
" style="fill:none;stroke:#1f77b4;stroke-width:1.5;"/>
    <path clip-path="url(#p3a4d3f6e03)" d="M 228.211522 84.26309 
L 225.755047 92.399648 
L 223.310024 104.071829 
L 220.964121 119.022828 
L 218.807953 136.83246 
L 216.929942 156.9208 
L 215.410461 178.567438 
L 214.31593 200.946701 
L 213.693655 223.176336 
L 213.568181 244.374345 
" style="fill:none;stroke:#1f77b4;stroke-width:1.5;"/>
    <path clip-path="url(#p3a4d3f6e03)" d="M 228.211522 84.26309 
L 227.815731 92.426577 
L 227.429472 104.127249 
L 227.066951 119.107936 
L 226.742521 136.947767 
L 226.469827 157.065747 
L 226.260857 178.740029 
L 226.125021 201.14324 
L 226.068387 223.391339 
L 226.093185 244.600693 
" style="fill:none;stroke:#1f77b4;stroke-width:1.5;"/>
    <path clip-path="url(#p3a4d3f6e03)" d="M 228.211522 84.26309 
L 229.879241 92.408749 
L 231.554752 104.090558 
L 233.178676 119.051589 
L 234.688957 136.871424 
L 236.024293 156.969778 
L 237.128118 178.625756 
L 237.952682 201.01311 
L 238.462695 223.248982 
L 238.638005 244.450824 
" style="fill:none;stroke:#1f77b4;stroke-width:1.5;"/>
    <path clip-path="url(#p3a4d3f6e03)" d="M 228.211522 84.26309 
L 231.930788 92.346296 
L 235.654911 103.962058 
L 239.251463 118.854283 
L 242.582693 136.60415 
L 245.513207 156.633848 
L 247.918781 178.225804 
L 249.695341 200.557701 
L 250.766901 222.750811 
L 251.091326 243.926376 
" style="fill:none;stroke:#1f77b4;stroke-width:1.5;"/>
    <path clip-path="url(#p3a4d3f6e03)" d="M 228.211522 84.26309 
L 233.95568 92.239688 
L 239.699239 103.742797 
L 245.237901 118.517757 
L 250.3598 136.148457 
L 254.857296 156.06129 
L 258.540451 177.54431 
L 261.250662 199.781865 
L 262.872673 221.902225 
L 263.343207 243.033057 
" style="fill:none;stroke:#1f77b4;stroke-width:1.5;"/>
    <path clip-path="url(#p3a4d3f6e03)" d="M 228.211522 84.26309 
L 235.939445 92.089722 
L 243.657555 103.434563 
L 251.091513 118.044965 
L 257.957739 135.508612 
L 263.979158 155.257756 
L 268.903046 176.588286 
L 272.518987 198.693821 
L 274.67458 220.712364 
L 275.286667 241.780532 
" style="fill:none;stroke:#1f77b4;stroke-width:1.5;"/>
    <path clip-path="url(#p3a4d3f6e03)" d="M 228.211522 84.26309 
L 237.867944 91.897521 
L 247.50049 103.039858 
L 256.767235 117.440038 
L 265.316078 134.690568 
L 272.804216 154.23112 
L 278.919987 175.367485 
L 283.404694 197.304987 
L 286.071564 219.193921 
L 286.819195 240.18222 
" style="fill:none;stroke:#1f77b4;stroke-width:1.5;"/>
    <path clip-path="url(#p3a4d3f6e03)" d="M 228.211522 84.26309 
L 239.727488 91.664517 
L 251.199757 102.561871 
L 262.221876 116.708224 
L 272.377166 133.701869 
L 281.261613 152.991338 
L 288.50928 173.894219 
L 293.817447 195.629764 
L 296.968294 217.362895 
L 297.844123 238.255031 
" style="fill:none;stroke:#1f77b4;stroke-width:1.5;"/>
    <path clip-path="url(#p3a4d3f6e03)" d="M 228.211522 84.26309 
L 241.504943 91.392442 
L 254.728398 102.004443 
L 267.414547 115.855819 
L 279.086747 132.551537 
L 289.285017 151.550286 
L 297.594497 172.183141 
L 303.673308 193.685259 
L 307.276351 215.23827 
L 308.271839 236.019027 
" style="fill:none;stroke:#1f77b4;stroke-width:1.5;"/>
    <path clip-path="url(#p3a4d3f6e03)" d="M 228.211522 84.26309 
L 243.187833 91.083314 
L 258.061018 101.372019 
L 272.307037 114.890083 
L 285.394501 131.249935 
L 296.813314 149.92156 
L 306.105607 170.250984 
L 312.895673 191.490975 
L 316.915237 212.841666 
L 318.020808 233.497048 
" style="fill:none;stroke:#1f77b4;stroke-width:1.5;"/>
    <path clip-path="url(#p3a4d3f6e03)" d="M 228.211522 84.26309 
L 244.764433 90.739412 
L 261.173993 100.669603 
L 276.86415 113.819145 
L 291.254508 129.808617 
L 303.79119 148.120261 
L 313.979658 168.116277 
L 321.416027 189.068459 
L 325.813171 210.196942 
L 327.018388 230.714292 
" style="fill:none;stroke:#1f77b4;stroke-width:1.5;"/>
    <path clip-path="url(#p3a4d3f6e03)" d="M 228.211522 84.26309 
L 246.223859 90.36326 
L 264.045654 99.902703 
L 281.053988 112.651902 
L 296.625619 128.240164 
L 310.16959 146.162764 
L 321.161299 165.799047 
L 329.174514 186.440944 
L 333.907682 207.329785 
L 335.20142 227.697876 
" style="fill:none;stroke:#1f77b4;stroke-width:1.5;"/>
    <path clip-path="url(#p3a4d3f6e03)" d="M 228.211522 84.26309 
L 247.55614 89.957607 
L 266.656439 99.077269 
L 284.848177 111.39791 
L 301.471749 126.558016 
L 315.906044 144.066481 
L 327.60313 163.320504 
L 336.120301 183.632973 
L 341.145982 204.267287 
L 342.516606 224.476388 
" style="fill:none;stroke:#1f77b4;stroke-width:1.5;"/>
    <path clip-path="url(#p3a4d3f6e03)" d="M 228.211522 84.26309 
L 228.211522 84.26309 
L 228.211522 84.26309 
L 228.211522 84.26309 
L 228.211522 84.26309 
L 228.211522 84.26309 
L 228.211522 84.26309 
L 228.211522 84.26309 
L 228.211522 84.26309 
L 228.211522 84.26309 
L 228.211522 84.26309 
L 228.211522 84.26309 
L 228.211522 84.26309 
L 228.211522 84.26309 
L 228.211522 84.26309 
L 228.211522 84.26309 
L 228.211522 84.26309 
L 228.211522 84.26309 
L 228.211522 84.26309 
L 228.211522 84.26309 
" style="fill:none;stroke:#1f77b4;stroke-width:1.5;"/>
    <path clip-path="url(#p3a4d3f6e03)" d="M 212.61721 91.016082 
L 214.260726 91.332478 
L 216.003416 91.612264 
L 217.833074 91.853367 
L 219.736796 92.053997 
L 221.701086 92.212657 
L 223.711957 92.328162 
L 225.755047 92.399648 
L 227.815731 92.426577 
L 229.879241 92.408749 
L 231.930788 92.346296 
L 233.95568 92.239688 
L 235.939445 92.089722 
L 237.867944 91.897521 
L 239.727488 91.664517 
L 241.504943 91.392442 
L 243.187833 91.083314 
L 244.764433 90.739412 
L 246.223859 90.36326 
L 247.55614 89.957607 
" style="fill:none;stroke:#1f77b4;stroke-width:1.5;"/>
    <path clip-path="url(#p3a4d3f6e03)" d="M 197.154217 101.234603 
L 200.406347 101.88169 
L 203.863761 102.454757 
L 207.501675 102.949238 
L 211.293663 103.361169 
L 215.211879 103.687222 
L 219.227307 103.924754 
L 223.310024 104.071829 
L 227.429472 104.127249 
L 231.554752 104.090558 
L 235.654911 103.962058 
L 239.699239 103.742797 
L 243.657555 103.434563 
L 247.50049 103.039858 
L 251.199757 102.561871 
L 254.728398 102.004443 
L 258.061018 101.372019 
L 261.173993 100.669603 
L 264.045654 99.902703 
L 266.656439 99.077269 
" style="fill:none;stroke:#1f77b4;stroke-width:1.5;"/>
    <path clip-path="url(#p3a4d3f6e03)" d="M 182.367626 114.680433 
L 187.13843 115.668259 
L 192.223188 116.54434 
L 197.5847 117.301233 
L 203.182961 117.932437 
L 208.975528 118.432486 
L 214.917931 118.797015 
L 220.964121 119.022828 
L 227.066951 119.107936 
L 233.178676 119.051589 
L 239.251463 118.854283 
L 245.237901 118.517757 
L 251.091513 118.044965 
L 256.767235 117.440038 
L 262.221876 116.708224 
L 267.414547 115.855819 
L 272.307037 114.890083 
L 276.86415 113.819145 
L 281.053988 112.651902 
L 284.848177 111.39791 
" style="fill:none;stroke:#1f77b4;stroke-width:1.5;"/>
    <path clip-path="url(#p3a4d3f6e03)" d="M 168.808707 130.967607 
L 174.955439 132.298608 
L 181.521938 133.480599 
L 188.459331 134.502961 
L 195.714636 135.356388 
L 203.23128 136.033025 
L 210.94969 136.526588 
L 218.807953 136.83246 
L 226.742521 136.947767 
L 234.688957 136.871424 
L 242.582693 136.60415 
L 250.3598 136.148457 
L 257.957739 135.508612 
L 265.316078 134.690568 
L 272.377166 133.701869 
L 279.086747 132.551537 
L 285.394501 131.249935 
L 291.254508 129.808617 
L 296.625619 128.240164 
L 301.471749 126.558016 
" style="fill:none;stroke:#1f77b4;stroke-width:1.5;"/>
    <path clip-path="url(#p3a4d3f6e03)" d="M 157.005207 149.568531 
L 164.337073 151.233638 
L 172.185629 152.714029 
L 180.491642 153.995782 
L 189.190439 155.066658 
L 198.212574 155.916293 
L 207.484601 156.536378 
L 216.929942 156.9208 
L 226.469827 157.065747 
L 236.024293 156.969778 
L 245.513207 156.633848 
L 254.857296 156.06129 
L 263.979158 155.257756 
L 272.804216 154.23112 
L 281.261613 152.991338 
L 289.285017 151.550286 
L 296.813314 149.92156 
L 303.79119 148.120261 
L 310.16959 146.162764 
L 315.906044 144.066481 
" style="fill:none;stroke:#1f77b4;stroke-width:1.5;"/>
    <path clip-path="url(#p3a4d3f6e03)" d="M 147.429407 169.832432 
L 155.714625 171.807355 
L 164.598487 173.564833 
L 174.013229 175.087744 
L 183.884433 176.360989 
L 194.131822 177.371762 
L 204.670189 178.109772 
L 215.410461 178.567438 
L 226.260857 178.740029 
L 237.128118 178.625756 
L 247.918781 178.225804 
L 258.540451 177.54431 
L 268.903046 176.588286 
L 278.919987 175.367485 
L 288.50928 173.894219 
L 297.594497 172.183141 
L 306.105607 170.250984 
L 313.979658 168.116277 
L 321.161299 165.799047 
L 327.60313 163.320504 
" style="fill:none;stroke:#1f77b4;stroke-width:1.5;"/>
    <path clip-path="url(#p3a4d3f6e03)" d="M 140.467379 191.015843 
L 149.442094 193.258371 
L 159.076978 195.255348 
L 169.297996 196.986829 
L 180.023497 198.435192 
L 191.165097 199.585462 
L 202.628744 200.425593 
L 214.31593 200.946701 
L 226.125021 201.14324 
L 237.952682 201.01311 
L 249.695341 200.557701 
L 261.250662 199.781865 
L 272.518987 198.693821 
L 283.404694 197.304987 
L 293.817447 195.629764 
L 303.673308 193.685259 
L 312.895673 191.490975 
L 321.416027 189.068459 
L 329.174514 186.440944 
L 336.120301 183.632973 
" style="fill:none;stroke:#1f77b4;stroke-width:1.5;"/>
    <path clip-path="url(#p3a4d3f6e03)" d="M 136.393164 212.322857 
L 145.771652 214.771943 
L 155.847214 216.953736 
L 166.542106 218.846129 
L 177.770366 220.429569 
L 189.43876 221.687424 
L 201.44792 222.606307 
L 213.693655 223.176336 
L 226.068387 223.391339 
L 238.462695 223.248982 
L 250.766901 222.750811 
L 262.872673 221.902225 
L 274.67458 220.712364 
L 286.071564 219.193921 
L 296.968294 217.362895 
L 307.276351 215.23827 
L 316.915237 212.841666 
L 325.813171 210.196942 
L 333.907682 207.329785 
L 341.145982 204.267287 
" style="fill:none;stroke:#1f77b4;stroke-width:1.5;"/>
    <path clip-path="url(#p3a4d3f6e03)" d="M 135.351188 232.951135 
L 144.83673 235.528283 
L 155.029206 237.824406 
L 165.849883 239.816149 
L 177.211648 241.482853 
L 189.019968 242.806939 
L 201.174052 243.774252 
L 213.568181 244.374345 
L 226.093185 244.600693 
L 238.638005 244.450824 
L 251.091326 243.926376 
L 263.343207 243.033057 
L 275.286667 241.780532 
L 286.819195 240.18222 
L 297.844123 238.255031 
L 308.271839 236.019027 
L 318.020808 233.497048 
L 327.018388 230.714292 
L 335.20142 227.697876 
L 342.516606 224.476388 
" style="fill:none;stroke:#1f77b4;stroke-width:1.5;"/>
   </g>
  </g>
 </g>
 <defs>
  <clipPath id="p3a4d3f6e03">
   <rect height="266.112" width="266.112" x="103.104" y="41.472"/>
  </clipPath>
 </defs>
</svg>
